<svg width="551" height="550" viewBox="0 0 551 550" fill="none" xmlns="http://www.w3.org/2000/svg">
<g clip-path="url(#clip0_1829_1784)">
<circle cx="276" cy="274.5" r="275" fill="#1E561E"/>
<circle cx="276" cy="274.5" r="227.5" stroke="white" stroke-width="21"/>
<g clip-path="url(#clip1_1829_1784)">
<path d="M311.428 322.662C301.535 329.906 289.339 334.189 276.137 334.189C243.096 334.189 216.311 307.404 216.311 274.363C216.311 244.449 238.264 219.665 266.938 215.239V117.5C184.487 122.271 119 190.724 119 274.362C119 361.089 189.411 431.5 276.138 431.5C316.189 431.5 352.756 416.475 380.531 391.765L311.428 322.662Z" fill="white"/>
<path d="M335.26 283.561C333.77 293.216 329.969 302.107 324.443 309.656L393.54 378.754C416.345 353.122 430.892 319.999 433 283.561H335.26Z" fill="white"/>
<path d="M285.337 215.239C311.012 219.202 331.299 239.488 335.261 265.163H433C428.406 185.757 364.743 122.094 285.337 117.5V215.239Z" fill="white"/>
</g>
</g>
<defs>
<clipPath id="clip0_1829_1784">
<rect width="550" height="550" fill="white" transform="translate(0.5)"/>
</clipPath>
<clipPath id="clip1_1829_1784">
<rect width="314" height="314" fill="white" transform="translate(119 117.5)"/>
</clipPath>
</defs>
</svg>
