<svg width="95" height="17" viewBox="0 0 95 17" fill="none" xmlns="http://www.w3.org/2000/svg">
<path d="M9.1 11.14L0.4 7.66V6.34L9.1 2.86V4.1L0.92 7.32V6.68L9.1 9.9V11.14ZM20.6039 11.14L11.9039 7.66V6.34L20.6039 2.86V4.1L12.4239 7.32V6.68L20.6039 9.9V11.14ZM45.0766 -9.53674e-07H46.5366V14H45.0766V-9.53674e-07ZM36.3166 14H34.8366V-9.53674e-07H36.3166V14ZM45.2166 7.54H36.1566V6.24H45.2166V7.54ZM57.4423 14V11.68L57.3823 11.3V7.42C57.3823 6.52667 57.129 5.84 56.6223 5.36C56.129 4.88 55.389 4.64 54.4023 4.64C53.7223 4.64 53.0757 4.75333 52.4623 4.98C51.849 5.20667 51.329 5.50667 50.9023 5.88L50.2623 4.82C50.7957 4.36667 51.4357 4.02 52.1823 3.78C52.929 3.52667 53.7157 3.4 54.5423 3.4C55.9023 3.4 56.949 3.74 57.6823 4.42C58.429 5.08667 58.8023 6.10667 58.8023 7.48V14H57.4423ZM53.8223 14.1C53.0357 14.1 52.349 13.9733 51.7623 13.72C51.189 13.4533 50.749 13.0933 50.4423 12.64C50.1357 12.1733 49.9823 11.64 49.9823 11.04C49.9823 10.4933 50.109 10 50.3623 9.56C50.629 9.10667 51.0557 8.74667 51.6423 8.48C52.2423 8.2 53.0423 8.06 54.0423 8.06H57.6623V9.12H54.0823C53.069 9.12 52.3623 9.3 51.9623 9.66C51.5757 10.02 51.3823 10.4667 51.3823 11C51.3823 11.6 51.6157 12.08 52.0823 12.44C52.549 12.8 53.2023 12.98 54.0423 12.98C54.8423 12.98 55.529 12.8 56.1023 12.44C56.689 12.0667 57.1157 11.5333 57.3823 10.84L57.7023 11.82C57.4357 12.5133 56.969 13.0667 56.3023 13.48C55.649 13.8933 54.8223 14.1 53.8223 14.1ZM65.1877 14.12C64.4277 14.12 63.6743 14.0133 62.9277 13.8C62.181 13.5867 61.521 13.26 60.9477 12.82L61.4077 11.76C61.9143 12.1333 62.501 12.42 63.1677 12.62C63.8343 12.8067 64.4943 12.9 65.1477 12.9C65.801 12.8867 66.3677 12.7933 66.8477 12.62C67.3277 12.4467 67.701 12.2067 67.9677 11.9C68.2343 11.5933 68.3677 11.2467 68.3677 10.86C68.3677 10.3 68.1143 9.86667 67.6077 9.56C67.101 9.24 66.4077 9.08 65.5277 9.08H63.7277V8.04H65.4277C65.9477 8.04 66.4077 7.97333 66.8077 7.84C67.2077 7.70667 67.5143 7.51333 67.7277 7.26C67.9543 7.00667 68.0677 6.70667 68.0677 6.36C68.0677 5.98667 67.9343 5.66667 67.6677 5.4C67.4143 5.13333 67.061 4.93333 66.6077 4.8C66.1543 4.66667 65.641 4.6 65.0677 4.6C64.5477 4.61333 64.0077 4.69333 63.4477 4.84C62.8877 4.97333 62.3343 5.18 61.7877 5.46L61.3877 4.36C62.001 4.04 62.6077 3.8 63.2077 3.64C63.821 3.46667 64.4343 3.38 65.0477 3.38C65.8877 3.35333 66.641 3.45333 67.3077 3.68C67.9877 3.90667 68.5277 4.23333 68.9277 4.66C69.3277 5.07333 69.5277 5.57333 69.5277 6.16C69.5277 6.68 69.3677 7.13333 69.0477 7.52C68.7277 7.90667 68.301 8.20667 67.7677 8.42C67.2343 8.63333 66.6277 8.74 65.9477 8.74L66.0077 8.36C67.2077 8.36 68.141 8.59333 68.8077 9.06C69.4877 9.52667 69.8277 10.16 69.8277 10.96C69.8277 11.5867 69.621 12.14 69.2077 12.62C68.7943 13.0867 68.2343 13.4533 67.5277 13.72C66.8343 13.9867 66.0543 14.12 65.1877 14.12ZM79.5713 14V11.68L79.5113 11.3V7.42C79.5113 6.52667 79.2579 5.84 78.7513 5.36C78.2579 4.88 77.5179 4.64 76.5313 4.64C75.8513 4.64 75.2046 4.75333 74.5913 4.98C73.9779 5.20667 73.4579 5.50667 73.0313 5.88L72.3913 4.82C72.9246 4.36667 73.5646 4.02 74.3113 3.78C75.0579 3.52667 75.8446 3.4 76.6713 3.4C78.0313 3.4 79.0779 3.74 79.8113 4.42C80.5579 5.08667 80.9313 6.10667 80.9313 7.48V14H79.5713ZM75.9513 14.1C75.1646 14.1 74.4779 13.9733 73.8913 13.72C73.3179 13.4533 72.8779 13.0933 72.5713 12.64C72.2646 12.1733 72.1113 11.64 72.1113 11.04C72.1113 10.4933 72.2379 10 72.4913 9.56C72.7579 9.10667 73.1846 8.74667 73.7713 8.48C74.3713 8.2 75.1713 8.06 76.1712 8.06H79.7913V9.12H76.2113C75.1979 9.12 74.4913 9.3 74.0913 9.66C73.7046 10.02 73.5113 10.4667 73.5113 11C73.5113 11.6 73.7446 12.08 74.2113 12.44C74.6779 12.8 75.3313 12.98 76.1712 12.98C76.9713 12.98 77.6579 12.8 78.2313 12.44C78.8179 12.0667 79.2446 11.5333 79.5113 10.84L79.8313 11.82C79.5646 12.5133 79.0979 13.0667 78.4313 13.48C77.7779 13.8933 76.9513 14.1 75.9513 14.1ZM91.9114 13.32V4.74H86.8514L86.7314 7.08C86.7047 7.78667 86.6581 8.48 86.5914 9.16C86.5381 9.84 86.4381 10.4667 86.2914 11.04C86.1581 11.6 85.9647 12.06 85.7114 12.42C85.4581 12.7667 85.1314 12.9667 84.7314 13.02L83.3114 12.76C83.7247 12.7733 84.0647 12.6267 84.3314 12.32C84.5981 12 84.8047 11.5667 84.9514 11.02C85.0981 10.4733 85.2047 9.85333 85.2714 9.16C85.3381 8.45333 85.3914 7.73333 85.4314 7L85.5714 3.5H93.3314V13.32H91.9114ZM82.8714 16.54V12.76H94.9714V16.54H93.6314V14H84.2114V16.54H82.8714Z" fill="white"/>
</svg>
