<svg width="44" height="44" viewBox="0 0 44 44" fill="none" xmlns="http://www.w3.org/2000/svg">
<path d="M20 7H34.6C36.8402 7 37.9603 7 38.816 7.43597C39.5686 7.81947 40.1805 8.43139 40.564 9.18404C41 10.0397 41 11.1598 41 13.4V16C41 17.8638 41 18.7957 40.6955 19.5307C40.2895 20.5108 39.5108 21.2895 38.5307 21.6955C37.7956 22 36.8638 22 35 22M24 37H9.4C7.15979 37 6.03969 37 5.18404 36.564C4.43139 36.1805 3.81947 35.5686 3.43597 34.816C3 33.9603 3 32.8402 3 30.6V28C3 26.1362 3 25.2044 3.30448 24.4693C3.71046 23.4892 4.48915 22.7105 5.46927 22.3045C6.20435 22 7.13623 22 9 22M18.6 27H25.4C25.9601 27 26.2401 27 26.454 26.891C26.6422 26.7951 26.7951 26.6422 26.891 26.454C27 26.2401 27 25.9601 27 25.4V18.6C27 18.0399 27 17.7599 26.891 17.546C26.7951 17.3578 26.6422 17.2049 26.454 17.109C26.2401 17 25.9601 17 25.4 17H18.6C18.0399 17 17.7599 17 17.546 17.109C17.3578 17.2049 17.2049 17.3578 17.109 17.546C17 17.7599 17 18.0399 17 18.6V25.4C17 25.9601 17 26.2401 17.109 26.454C17.2049 26.6422 17.3578 26.7951 17.546 26.891C17.7599 27 18.0399 27 18.6 27ZM33.6 42H40.4C40.9601 42 41.2401 42 41.454 41.891C41.6422 41.7951 41.7951 41.6422 41.891 41.454C42 41.2401 42 40.9601 42 40.4V33.6C42 33.0399 42 32.7599 41.891 32.546C41.7951 32.3578 41.6422 32.2049 41.454 32.109C41.2401 32 40.9601 32 40.4 32H33.6C33.0399 32 32.7599 32 32.546 32.109C32.3578 32.2049 32.2049 32.3578 32.109 32.546C32 32.7599 32 33.0399 32 33.6V40.4C32 40.9601 32 41.2401 32.109 41.454C32.2049 41.6422 32.3578 41.7951 32.546 41.891C32.7599 42 33.0399 42 33.6 42ZM3.6 12H10.4C10.9601 12 11.2401 12 11.454 11.891C11.6422 11.7951 11.7951 11.6422 11.891 11.454C12 11.2401 12 10.9601 12 10.4V3.6C12 3.03995 12 2.75992 11.891 2.54601C11.7951 2.35785 11.6422 2.20487 11.454 2.10899C11.2401 2 10.9601 2 10.4 2H3.6C3.03995 2 2.75992 2 2.54601 2.10899C2.35785 2.20487 2.20487 2.35785 2.10899 2.54601C2 2.75992 2 3.03995 2 3.6V10.4C2 10.9601 2 11.2401 2.10899 11.454C2.20487 11.6422 2.35785 11.7951 2.54601 11.891C2.75992 12 3.03995 12 3.6 12Z" stroke="#31B536" stroke-width="2.68" stroke-linecap="round" stroke-linejoin="round"/>
</svg>
