<svg width="37" height="45" viewBox="0 0 37 45" fill="none" xmlns="http://www.w3.org/2000/svg">
<path d="M17.3053 43.0582C17.7693 43.3342 18.0013 43.4721 18.3288 43.5437C18.5829 43.5993 18.9537 43.5993 19.2078 43.5437C19.5352 43.4721 19.7673 43.3342 20.2313 43.0582C24.3145 40.6302 35.5366 33.0032 35.5366 22.5165V14.398C35.5366 12.1037 35.5366 10.9565 35.1896 10.1422C34.837 9.31455 34.4856 8.87426 33.7624 8.3538C33.0509 7.84174 31.656 7.54605 28.8664 6.95467C25.7917 6.30288 23.4305 5.12591 21.2718 3.42376C20.2366 2.60753 19.719 2.19941 19.314 2.08809C18.8866 1.97064 18.65 1.97064 18.2226 2.08809C17.8176 2.19941 17.3 2.60753 16.2648 3.42376C14.1061 5.12591 11.7449 6.30288 8.67022 6.95467C5.88055 7.54605 4.48571 7.84174 3.77418 8.3538C3.051 8.87426 2.69963 9.31455 2.34697 10.1422C2 10.9565 2 12.1037 2 14.398V22.5165C2 33.0032 13.2221 40.6302 17.3053 43.0582Z" stroke="#31B536" stroke-width="2.68293" stroke-linecap="round" stroke-linejoin="round"/>
</svg>
