<svg width="20" height="21" viewBox="0 0 20 21" fill="none" xmlns="http://www.w3.org/2000/svg">
<path d="M10 5.13359C9.01109 5.13359 8.04439 5.42745 7.22215 5.97801C6.3999 6.52858 5.75904 7.31112 5.3806 8.22668C5.00216 9.14223 4.90315 10.1497 5.09607 11.1216C5.289 12.0936 5.7652 12.9864 6.46447 13.6871C7.16373 14.3878 8.05464 14.8651 9.02455 15.0584C9.99445 15.2517 10.9998 15.1525 11.9134 14.7733C12.827 14.394 13.6079 13.7518 14.1573 12.9278C14.7068 12.1039 15 11.1351 15 10.1441C15 8.81525 14.4732 7.5408 13.5355 6.60114C12.5979 5.66148 11.3261 5.13359 10 5.13359ZM10 13.1504C9.40666 13.1504 8.82664 12.9741 8.33329 12.6438C7.83994 12.3135 7.45542 11.8439 7.22836 11.2946C7.0013 10.7453 6.94189 10.1408 7.05764 9.55762C7.1734 8.97445 7.45912 8.43878 7.87868 8.01833C8.29824 7.59789 8.83279 7.31157 9.41473 7.19557C9.99667 7.07957 10.5999 7.1391 11.1481 7.36664C11.6962 7.59419 12.1648 7.97951 12.4944 8.4739C12.8241 8.96829 13 9.54953 13 10.1441C13 10.9415 12.6839 11.7061 12.1213 12.2699C11.5587 12.8337 10.7956 13.1504 10 13.1504ZM15 4.13148C14.8022 4.13148 14.6089 4.19025 14.4444 4.30036C14.28 4.41048 14.1518 4.56699 14.0761 4.7501C14.0004 4.93321 13.9806 5.1347 14.0192 5.32909C14.0578 5.52348 14.153 5.70204 14.2929 5.84218C14.4327 5.98233 14.6109 6.07777 14.8049 6.11644C14.9989 6.15511 15.2 6.13526 15.3827 6.05941C15.5654 5.98357 15.7216 5.85512 15.8315 5.69033C15.9414 5.52553 16 5.33178 16 5.13359C16 4.86781 15.8946 4.61292 15.7071 4.42499C15.5196 4.23706 15.2652 4.13148 15 4.13148ZM19.94 6.3762C19.9234 5.51982 19.7611 4.67256 19.46 3.87093C19.1808 3.14146 18.7516 2.47899 18.2003 1.92654C17.649 1.37408 16.9879 0.94399 16.26 0.664185C15.4601 0.36245 14.6146 0.199776 13.76 0.183173C12.79 0.123047 12.47 0.123047 10 0.123047C7.53 0.123047 7.21 0.123047 6.24 0.183173C5.38542 0.199776 4.53995 0.36245 3.74 0.664185C3.01207 0.94399 2.35099 1.37408 1.7997 1.92654C1.2484 2.47899 0.819216 3.14146 0.54 3.87093C0.238899 4.67256 0.0765676 5.51982 0.0599999 6.3762C-5.58794e-08 7.35827 0 7.67894 0 10.1441C0 12.6093 -5.58794e-08 12.93 0.0599999 13.9121C0.0765676 14.7684 0.238899 15.6157 0.54 16.4173C0.819216 17.1468 1.2484 17.8093 1.7997 18.3617C2.35099 18.9142 3.01207 19.3443 3.74 19.6241C4.53995 19.9258 5.38542 20.0885 6.24 20.1051C7.24 20.1051 7.53 20.1652 10 20.1652C12.47 20.1652 12.79 20.1652 13.76 20.1051C14.6146 20.0885 15.4601 19.9258 16.26 19.6241C16.9879 19.3443 17.649 18.9142 18.2003 18.3617C18.7516 17.8093 19.1808 17.1468 19.46 16.4173C19.7611 15.6157 19.9234 14.7684 19.94 13.9121C19.94 12.9099 20 12.6093 20 10.1441C20 7.67894 20 7.35827 19.94 6.3762ZM17.94 13.8219C17.9225 14.4578 17.8043 15.0869 17.59 15.6858C17.4128 16.1591 17.1327 16.587 16.77 16.9384C16.4214 17.302 15.9936 17.5798 15.52 17.7501C14.921 17.9737 14.289 18.0956 13.65 18.1109C12.71 18.1109 12.42 18.161 9.99 18.161C7.56 18.161 7.28 18.161 6.34 18.161C5.70202 18.1445 5.07075 18.0261 4.47 17.8102C3.99766 17.6327 3.57067 17.352 3.22 16.9885C2.85715 16.6392 2.57992 16.2105 2.41 15.7359C2.1878 15.1389 2.06615 14.509 2.05 13.872C2.05 12.8699 2.05 12.6193 2.05 10.1942C2.05 7.76913 2.05 7.47852 2.05 6.5165C2.06724 5.87636 2.18884 5.24335 2.41 4.64255C2.58256 4.1722 2.85953 3.74729 3.22 3.39994C3.56858 3.03633 3.99641 2.75851 4.47 2.58823C5.06899 2.36466 5.70099 2.24273 6.34 2.22747C7.28 2.12726 7.57 2.12726 10 2.12726C12.43 2.12726 12.72 2.12726 13.66 2.12726C14.3021 2.14363 14.9373 2.2655 15.54 2.48802C16.0094 2.66094 16.4334 2.9385 16.78 3.29973C17.1428 3.64904 17.4201 4.07777 17.59 4.55236C17.8348 5.16221 17.9735 5.80959 18 6.46639C18 7.4685 18.05 7.71902 18.05 10.1441C18.05 12.5692 18 12.8598 18 13.8219H17.94Z" fill="#A7A7A7"/>
</svg>
