<svg width="58" height="58" viewBox="0 0 58 58" fill="none" xmlns="http://www.w3.org/2000/svg">
<rect width="58" height="58" rx="5" fill="#31B536"/>
<path d="M24.2957 31.9553C24.4831 32.1416 24.7365 32.2461 25.0007 32.2461C25.2649 32.2461 25.5183 32.1416 25.7057 31.9553L29.2957 28.4153L32.8357 31.9553C33.0231 32.1416 33.2765 32.2461 33.5407 32.2461C33.8049 32.2461 34.0583 32.1416 34.2457 31.9553C34.3394 31.8623 34.4138 31.7517 34.4646 31.6299C34.5154 31.508 34.5415 31.3773 34.5415 31.2453C34.5415 31.1133 34.5154 30.9826 34.4646 30.8607C34.4138 30.7389 34.3394 30.6283 34.2457 30.5353L30.0057 26.2953C29.9127 26.2016 29.8021 26.1272 29.6803 26.0764C29.5584 26.0256 29.4277 25.9995 29.2957 25.9995C29.1637 25.9995 29.033 26.0256 28.9111 26.0764C28.7893 26.1272 28.6787 26.2016 28.5857 26.2953L24.2957 30.5353C24.202 30.6283 24.1276 30.7389 24.0768 30.8607C24.026 30.9826 23.9999 31.1133 23.9999 31.2453C23.9999 31.3773 24.026 31.508 24.0768 31.6299C24.1276 31.7517 24.202 31.8623 24.2957 31.9553Z" fill="white"/>
</svg>
