<svg width="70" height="70" viewBox="0 0 70 70" fill="none" xmlns="http://www.w3.org/2000/svg">
<circle cx="34.8831" cy="34.8831" r="34.8831" fill="#D9D9D9"/>
<g clip-path="url(#clip0_0_1)">
<g filter="url(#filter0_d_0_1)">
<path d="M34.5 58.6875C48.2208 58.6875 59.3438 47.5646 59.3438 33.8438C59.3438 20.1229 48.2208 9 34.5 9C20.7792 9 9.65625 20.1229 9.65625 33.8438C9.65625 47.5646 20.7792 58.6875 34.5 58.6875Z" fill="black"/>
</g>
<path d="M34.5 58.6875C48.2208 58.6875 59.3438 47.5646 59.3438 33.8438C59.3438 20.1229 48.2208 9 34.5 9C20.7792 9 9.65625 20.1229 9.65625 33.8438C9.65625 47.5646 20.7792 58.6875 34.5 58.6875Z" fill="#26A17B"/>
<path style="mix-blend-mode:soft-light" d="M34.5 58.6875C48.2208 58.6875 59.3438 47.5646 59.3438 33.8438C59.3438 20.1229 48.2208 9 34.5 9C20.7792 9 9.65625 20.1229 9.65625 33.8438C9.65625 47.5646 20.7792 58.6875 34.5 58.6875Z" fill="url(#paint0_linear_0_1)"/>
<path d="M34.5 57.8594C47.7635 57.8594 58.5156 47.1072 58.5156 33.8438C58.5156 20.5803 47.7635 9.82812 34.5 9.82812C21.2365 9.82812 10.4844 20.5803 10.4844 33.8438C10.4844 47.1072 21.2365 57.8594 34.5 57.8594Z" stroke="black" stroke-opacity="0.097"/>
<g filter="url(#filter1_d_0_1)">
<path d="M37.6833 36.1343V36.131C37.5011 36.1443 36.562 36.2006 34.4669 36.2006C32.7941 36.2006 31.6165 36.1509 31.2024 36.131V36.136C24.7629 35.8528 19.9565 34.7315 19.9565 33.3899C19.9565 32.05 24.7629 30.9287 31.2024 30.6405V35.0197C31.6231 35.0495 32.8289 35.1207 34.495 35.1207C36.4941 35.1207 37.4962 35.0379 37.6833 35.0213V30.6439C44.1096 30.9304 48.9044 32.0517 48.9044 33.3899C48.9044 34.7315 44.1096 35.8494 37.6833 36.1343M37.6833 30.1884V26.2697H46.6503V20.2939H22.2355V26.2697H31.2024V30.1867C23.9149 30.5213 18.4344 31.9655 18.4344 33.6947C18.4344 35.4238 23.9149 36.8664 31.2024 37.2026V49.7603H37.6833V37.1993C44.9592 36.8647 50.4265 35.4221 50.4265 33.6947C50.4265 31.9672 44.9592 30.5246 37.6833 30.1884" fill="black"/>
</g>
<path d="M37.6833 36.1343V36.131C37.5011 36.1443 36.562 36.2006 34.4669 36.2006C32.7941 36.2006 31.6165 36.1509 31.2024 36.131V36.136C24.7629 35.8528 19.9565 34.7315 19.9565 33.3899C19.9565 32.05 24.7629 30.9287 31.2024 30.6405V35.0197C31.6231 35.0495 32.8289 35.1207 34.495 35.1207C36.4941 35.1207 37.4962 35.0379 37.6833 35.0213V30.6439C44.1096 30.9304 48.9044 32.0517 48.9044 33.3899C48.9044 34.7315 44.1096 35.8494 37.6833 36.1343M37.6833 30.1884V26.2697H46.6503V20.2939H22.2355V26.2697H31.2024V30.1867C23.9149 30.5213 18.4344 31.9655 18.4344 33.6947C18.4344 35.4238 23.9149 36.8664 31.2024 37.2026V49.7603H37.6833V37.1993C44.9592 36.8647 50.4265 35.4221 50.4265 33.6947C50.4265 31.9672 44.9592 30.5246 37.6833 30.1884" fill="white"/>
</g>
<defs>
<filter id="filter0_d_0_1" x="8.65625" y="8.5" width="51.6875" height="51.6875" filterUnits="userSpaceOnUse" color-interpolation-filters="sRGB">
<feFlood flood-opacity="0" result="BackgroundImageFix"/>
<feColorMatrix in="SourceAlpha" type="matrix" values="0 0 0 0 0 0 0 0 0 0 0 0 0 0 0 0 0 0 127 0" result="hardAlpha"/>
<feOffset dy="0.5"/>
<feGaussianBlur stdDeviation="0.5"/>
<feComposite in2="hardAlpha" operator="out"/>
<feColorMatrix type="matrix" values="0 0 0 0 0 0 0 0 0 0 0 0 0 0 0 0 0 0 0.199474 0"/>
<feBlend mode="normal" in2="BackgroundImageFix" result="effect1_dropShadow_0_1"/>
<feBlend mode="normal" in="SourceGraphic" in2="effect1_dropShadow_0_1" result="shape"/>
</filter>
<filter id="filter1_d_0_1" x="17.4344" y="19.7939" width="33.9921" height="31.4668" filterUnits="userSpaceOnUse" color-interpolation-filters="sRGB">
<feFlood flood-opacity="0" result="BackgroundImageFix"/>
<feColorMatrix in="SourceAlpha" type="matrix" values="0 0 0 0 0 0 0 0 0 0 0 0 0 0 0 0 0 0 127 0" result="hardAlpha"/>
<feOffset dy="0.5"/>
<feGaussianBlur stdDeviation="0.5"/>
<feColorMatrix type="matrix" values="0 0 0 0 0 0 0 0 0 0 0 0 0 0 0 0 0 0 0.204257 0"/>
<feBlend mode="normal" in2="BackgroundImageFix" result="effect1_dropShadow_0_1"/>
<feBlend mode="normal" in="SourceGraphic" in2="effect1_dropShadow_0_1" result="shape"/>
</filter>
<linearGradient id="paint0_linear_0_1" x1="2494.03" y1="9" x2="2494.03" y2="4977.75" gradientUnits="userSpaceOnUse">
<stop stop-color="white" stop-opacity="0.5"/>
<stop offset="1" stop-opacity="0.5"/>
</linearGradient>
<clipPath id="clip0_0_1">
<rect width="53" height="53" fill="white" transform="translate(8 9)"/>
</clipPath>
</defs>
</svg>
