<svg width="37" height="37" viewBox="0 0 37 37" fill="none" xmlns="http://www.w3.org/2000/svg">
<g filter="url(#filter0_b_0_1)">
<rect x="-7.62939e-06" width="37" height="37" rx="10" fill="#707070" fill-opacity="0.1"/>
</g>
<path d="M27.8058 8.83301L20.166 14.4949L21.5853 11.1582L27.8058 8.83301Z" fill="#E17726"/>
<path d="M10.2012 8.83301L17.7654 14.5477L16.4141 11.1582L10.2012 8.83301Z" fill="#E27625"/>
<path d="M25.0582 21.9609L23.0275 25.0712L27.3758 26.2715L28.6138 22.0289L25.0582 21.9609Z" fill="#E27625"/>
<path d="M9.39361 22.0289L10.6241 26.2715L14.9724 25.0712L12.9493 21.9609L9.39361 22.0289Z" fill="#E27625"/>
<path d="M14.7389 16.7075L13.5234 18.5344L17.834 18.7307L17.683 14.0879L14.7389 16.7075Z" fill="#E27625"/>
<path d="M23.2687 16.7076L20.2717 14.0352L20.166 18.7307L24.4766 18.5345L23.2687 16.7076Z" fill="#E27625"/>
<path d="M14.9725 25.0716L17.5694 23.8109L15.3348 22.0596L14.9725 25.0716Z" fill="#E27625"/>
<path d="M20.4305 23.8109L23.0274 25.0716L22.665 22.0596L20.4305 23.8109Z" fill="#E27625"/>
<path d="M23.0274 25.0713L20.4305 23.8105L20.6343 25.5016L20.6116 26.2112L23.0274 25.0713Z" fill="#D5BFB2"/>
<path d="M14.9725 25.0713L17.3882 26.2112L17.3731 25.5016L17.5694 23.8105L14.9725 25.0713Z" fill="#D5BFB2"/>
<path d="M17.4335 20.9427L15.2744 20.3085L16.7993 19.6064L17.4335 20.9427Z" fill="#233447"/>
<path d="M20.5664 20.9427L21.2005 19.6064L22.7405 20.3085L20.5664 20.9427Z" fill="#233447"/>
<path d="M14.9725 25.0712L15.3499 21.9609L12.9493 22.0289L14.9725 25.0712Z" fill="#CC6228"/>
<path d="M22.6504 21.9609L23.0278 25.0712L25.0586 22.0289L22.6504 21.9609Z" fill="#CC6228"/>
<path d="M24.4766 18.5342L20.166 18.7305L20.5661 20.9424L21.2002 19.6062L22.7403 20.3083L24.4766 18.5342Z" fill="#CC6228"/>
<path d="M15.2749 20.3083L16.7998 19.6062L17.4339 20.9424L17.834 18.7305L13.5234 18.5342L15.2749 20.3083Z" fill="#CC6228"/>
<path d="M13.5234 18.5342L15.3352 22.0597L15.2749 20.3083L13.5234 18.5342Z" fill="#E27525"/>
<path d="M22.7406 20.3083L22.6651 22.0597L24.4769 18.5342L22.7406 20.3083Z" fill="#E27525"/>
<path d="M17.8336 18.7305L17.4335 20.9423L17.9393 23.5544L18.045 20.112L17.8336 18.7305Z" fill="#E27525"/>
<path d="M20.1667 18.7305L19.9629 20.1044L20.061 23.5544L20.5668 20.9423L20.1667 18.7305Z" fill="#E27525"/>
<path d="M20.5664 20.9427L20.0606 23.5547L20.4305 23.8114L22.6651 22.06L22.7406 20.3086L20.5664 20.9427Z" fill="#F5841F"/>
<path d="M15.2744 20.3086L15.3348 22.06L17.5694 23.8114L17.9393 23.5547L17.4335 20.9427L15.2744 20.3086Z" fill="#F5841F"/>
<path d="M20.6117 26.2112L20.6343 25.5016L20.4456 25.3355L17.5543 25.3355L17.3731 25.5016L17.3882 26.2112L14.9725 25.0713L15.818 25.7658L17.5316 26.951L20.4683 26.951L22.1819 25.7658L23.0274 25.0713L20.6117 26.2112Z" fill="#C0AC9D"/>
<path d="M20.4306 23.8114L20.0606 23.5547L17.9393 23.5547L17.5694 23.8114L17.3732 25.5024L17.5543 25.3363L20.4457 25.3363L20.6344 25.5024L20.4306 23.8114Z" fill="#161616"/>
<path d="M28.1231 14.8648L28.7648 11.7394L27.806 8.83301L20.4305 14.3062L23.269 16.7068L27.2701 17.8769L28.1533 16.8427L27.7683 16.5634L28.3873 16.0047L27.9193 15.6348L28.5308 15.1743L28.1231 14.8648Z" fill="#763E1A"/>
<path d="M9.23513 11.7394L9.88436 14.8648L9.46916 15.1743L10.0806 15.6348L9.61259 16.0047L10.2316 16.5634L9.84661 16.8427L10.7299 17.8769L14.7385 16.7068L17.5694 14.3062L10.2014 8.83301L9.23513 11.7394Z" fill="#763E1A"/>
<path d="M27.2701 17.8772L23.269 16.707L24.4769 18.534L22.6651 22.0594L25.0582 22.0292L28.6138 22.0292L27.2701 17.8772Z" fill="#F5841F"/>
<path d="M14.7384 16.707L10.7298 17.8772L9.39362 22.0292L12.9493 22.0292L15.3348 22.0594L13.523 18.534L14.7384 16.707Z" fill="#F5841F"/>
<path d="M20.166 18.73L20.4302 14.3062L21.5853 11.1582L16.4141 11.1582L17.5691 14.3062L17.8333 18.73L17.9314 20.119L17.939 23.554L20.0603 23.554L20.0679 20.119L20.166 18.73Z" fill="#F5841F"/>
<defs>
<filter id="filter0_b_0_1" x="-42" y="-42" width="121" height="121" filterUnits="userSpaceOnUse" color-interpolation-filters="sRGB">
<feFlood flood-opacity="0" result="BackgroundImageFix"/>
<feGaussianBlur in="BackgroundImageFix" stdDeviation="21"/>
<feComposite in2="SourceAlpha" operator="in" result="effect1_backgroundBlur_0_1"/>
<feBlend mode="normal" in="SourceGraphic" in2="effect1_backgroundBlur_0_1" result="shape"/>
</filter>
</defs>
</svg>
