<svg width="20" height="17" viewBox="0 0 20 17" fill="none" xmlns="http://www.w3.org/2000/svg">
<path d="M13.4 7.26459L8.5 4.09793C8.34798 4.00997 8.17554 3.96367 8 3.96367C7.82446 3.96367 7.65202 4.00997 7.5 4.09793C7.35174 4.18363 7.22791 4.30603 7.14036 4.45341C7.05282 4.6008 7.00449 4.76824 7 4.9397V11.273C7.0013 11.4516 7.05019 11.6266 7.14161 11.7798C7.23303 11.9331 7.36367 12.0591 7.52 12.1449C7.66543 12.2307 7.83123 12.2757 8 12.2751C8.17714 12.2629 8.34869 12.2079 8.5 12.1148L13.4 8.94813C13.5403 8.85728 13.6557 8.73265 13.7356 8.5856C13.8155 8.43856 13.8574 8.27379 13.8574 8.10636C13.8574 7.93893 13.8155 7.77416 13.7356 7.62712C13.6557 7.48007 13.5403 7.35543 13.4 7.26459ZM9 9.42914V6.78358L11 8.10636L9 9.42914ZM17.38 0.60057L15.83 0.400148C11.991 -0.0708828 8.109 -0.0708828 4.27 0.400148L2.72 0.60057C1.97471 0.68185 1.2854 1.03535 0.783675 1.59358C0.281954 2.15182 0.0029736 2.87567 0 3.62694V12.5858C0.00635666 13.3259 0.280506 14.0386 0.771546 14.5915C1.26259 15.1444 1.93715 15.4999 2.67 15.5921L4.22 15.7825C6.13776 16.016 8.06815 16.1298 10 16.1232C11.9323 16.1232 13.8627 16.0027 15.78 15.7625L17.33 15.5721C18.0628 15.4799 18.7374 15.1243 19.2285 14.5714C19.7195 14.0185 19.9936 13.3059 20 12.5657V3.62694C19.9985 2.88335 19.7265 2.16582 19.235 1.60873C18.7435 1.05164 18.0662 0.693213 17.33 0.60057H17.38ZM18.05 12.6259C18.0508 12.8783 17.9565 13.1218 17.7859 13.3076C17.6154 13.4933 17.3811 13.6078 17.13 13.628L15.58 13.8184C11.9077 14.2794 8.19232 14.2794 4.52 13.8184L2.97 13.628C2.71889 13.6078 2.48463 13.4933 2.31406 13.3076C2.1435 13.1218 2.04919 12.8783 2.05 12.6259V3.62694C2.06192 3.37836 2.16055 3.14187 2.32869 2.95873C2.49683 2.77558 2.7238 2.65741 2.97 2.62483L4.47 2.39434C8.14273 1.94004 11.8573 1.94004 15.53 2.39434L17.08 2.58474C17.3262 2.61733 17.5532 2.7355 17.7213 2.91864C17.8894 3.10179 17.9881 3.33828 18 3.58685L18.05 12.6259Z" fill="#A7A7A7"/>
</svg>
