<svg width="227" height="39" viewBox="0 0 1984 314" fill="none" xmlns="http://www.w3.org/2000/svg">
<g clip-path="url(#clip0_2223_40)">
<path d="M533.29 70.13L608.5 216.93H573.76L556.08 181.2H480.38L463.93 216.93H429.43L499.65 70.13H533.29ZM490.38 159.66H545.38L516.61 101.55L490.38 159.66Z" fill="white"/>
<path d="M745.58 216.93L710.05 159.69H703.81L668.07 216.93H633.62L678.4 145.05L633.62 73.39H668.07L703.81 130.39H710.05L745.58 73.39H780L735.22 145.05L780 216.93H745.58Z" fill="white"/>
<path d="M816.84 216.93V73.39H846.12V216.93H816.84Z" fill="white"/>
<path d="M931.16 216.93C925.388 216.943 919.67 215.816 914.335 213.613C909 211.41 904.152 208.174 900.071 204.092C895.99 200.01 892.756 195.162 890.554 189.826C888.352 184.49 887.226 178.772 887.24 173V117.08C887.251 111.326 888.396 105.631 890.609 100.32C892.823 95.0088 896.062 90.1864 900.142 86.1285C904.221 82.0706 909.06 78.8568 914.383 76.671C919.705 74.4852 925.407 73.3703 931.16 73.39H989.72C995.474 73.3703 1001.18 74.4852 1006.5 76.671C1011.82 78.8568 1016.66 82.0706 1020.74 86.1285C1024.82 90.1864 1028.06 95.0088 1030.27 100.32C1032.48 105.631 1033.63 111.326 1033.64 117.08V173.08C1033.65 178.85 1032.52 184.565 1030.32 189.897C1028.11 195.229 1024.88 200.074 1020.8 204.153C1016.72 208.231 1011.87 211.464 1006.54 213.666C1001.21 215.867 995.49 216.993 989.72 216.98L931.16 216.93ZM1004.36 173.03V117.08C1004.36 113.198 1002.81 109.476 1000.07 106.731C997.325 103.986 993.602 102.443 989.72 102.44H931.16C927.29 102.479 923.589 104.034 920.852 106.771C918.114 109.508 916.559 113.209 916.52 117.08V173.08C916.523 176.961 918.067 180.682 920.812 183.426C923.557 186.169 927.279 187.71 931.16 187.71H989.72C991.654 187.728 993.571 187.358 995.36 186.625C997.148 185.891 998.772 184.807 1000.14 183.436C1001.5 182.066 1002.58 180.437 1003.3 178.645C1004.03 176.852 1004.39 174.933 1004.36 173V173.03Z" fill="white"/>
<path d="M1191.89 216.93V143.76L1148 187.66L1104 143.76V216.93H1074.72V73.39L1147.92 146.39L1221.13 73.44V216.93H1191.89Z" fill="white"/>
<path d="M315.07 313.19L195.33 120.68L115 249.33H190.13L150.22 313.19H0L195.33 0L390.2 313.19H315.07Z" fill="#268F44"/>
<path d="M315.07 313.19C275.163 208.79 235.25 104.393 195.33 0L390.2 313.19H315.07Z" fill="#1B7D39"/>
<path d="M195.33 120.68L115 249.33H190.13L150.22 313.19H0L195.33 0V120.68Z" fill="#5DBA64"/>
<path d="M195.33 120.68L115 249.33C141.8 166.223 168.577 83.1133 195.33 0V120.68Z" fill="#3FB450"/>
<path d="M195.33 120.68L115 249.33H190.13L150.22 313.19H0L195.33 120.68Z" fill="#EE6B1F"/>
<path d="M115 249.33H190.13L0 313.19L115 249.33Z" fill="#C55917"/>
<path d="M190.17 249.33L150.26 313.19H0L190.17 249.33Z" fill="#F27D56"/>
<path d="M1315.72 5.99001V307.2" stroke="white" stroke-width="7.6" stroke-miterlimit="10"/>
<path d="M1430.07 138.9C1425.85 138.942 1421.65 138.196 1417.69 136.7C1414.05 135.302 1410.73 133.187 1407.92 130.482C1405.11 127.777 1402.87 124.535 1401.33 120.95C1399.74 117.154 1398.94 113.068 1399 108.95C1398.94 104.832 1399.74 100.746 1401.33 96.9497C1402.86 93.3817 1405.09 90.16 1407.89 87.4797C1410.74 84.7487 1414.1 82.6166 1417.78 81.2097C1426 78.1829 1435.04 78.2682 1443.2 81.4497C1447.08 83.0278 1450.51 85.5226 1453.2 88.7197L1446.2 95.2897C1444.19 93.1225 1441.76 91.3843 1439.06 90.1797C1436.42 89.0346 1433.56 88.4556 1430.67 88.4797C1427.82 88.441 1424.99 88.9467 1422.32 89.9697C1419.87 90.9227 1417.63 92.3653 1415.75 94.2097C1413.89 96.0603 1412.4 98.2628 1411.39 100.69C1409.29 105.971 1409.29 111.859 1411.39 117.14C1412.4 119.567 1413.89 121.769 1415.75 123.62C1417.63 125.464 1419.87 126.907 1422.32 127.86C1424.99 128.886 1427.82 129.395 1430.67 129.36C1433.56 129.38 1436.42 128.798 1439.06 127.65C1441.78 126.436 1444.21 124.668 1446.2 122.46L1453.2 129.02C1450.5 132.225 1447.07 134.736 1443.2 136.34C1439.04 138.069 1434.58 138.939 1430.07 138.9Z" fill="white"/>
<path d="M1477.92 137.07V78.8997H1501.85C1506.4 78.7949 1510.91 79.6467 1515.1 81.3997C1518.59 82.8606 1521.56 85.3339 1523.62 88.4997C1525.69 91.8368 1526.73 95.7062 1526.62 99.6297C1526.79 103.449 1525.77 107.226 1523.71 110.447C1521.65 113.668 1518.65 116.176 1515.11 117.63C1510.93 119.397 1506.41 120.25 1501.86 120.13H1484L1488.77 115.3V137.07H1477.92ZM1488.77 116.46L1484.04 111.23H1501.4C1506.17 111.23 1509.76 110.203 1512.16 108.15C1513.38 107.09 1514.33 105.769 1514.96 104.286C1515.59 102.803 1515.87 101.197 1515.78 99.5897C1515.87 97.989 1515.59 96.3898 1514.96 94.9147C1514.33 93.4396 1513.38 92.1277 1512.16 91.0797C1509.76 89.0797 1506.17 88.0797 1501.4 88.0797H1484.04L1488.77 82.7697V116.46ZM1516.03 137.07L1501.27 115.96H1512.82L1527.61 137.07H1516.03Z" fill="white"/>
<path d="M1570.48 137.07V114.07L1572.98 120.64L1547.63 78.8997H1559.1L1579.54 112.56H1573.06L1593.42 78.8997H1604.05L1578.77 120.62L1581.18 114.05V137.05L1570.48 137.07Z" fill="white"/>
<path d="M1628.65 137.07V78.8997H1652.58C1657.13 78.7961 1661.64 79.6478 1665.83 81.3997C1669.32 82.8664 1672.28 85.3384 1674.35 88.4997C1676.42 91.8386 1677.46 95.7068 1677.35 99.6297C1677.52 103.47 1676.5 107.268 1674.44 110.514C1672.39 113.76 1669.39 116.299 1665.84 117.79C1661.66 119.577 1657.14 120.44 1652.59 120.32H1634.72L1639.46 115.32V137.07H1628.65ZM1639.45 116.46L1634.71 111.14H1652.08C1656.84 111.14 1660.43 110.14 1662.84 108.14C1664.06 107.09 1665.01 105.776 1665.64 104.299C1666.26 102.822 1666.54 101.221 1666.45 99.6197C1666.54 98.0197 1666.26 96.4208 1665.64 94.9456C1665.01 93.4704 1664.06 92.1582 1662.84 91.1097C1660.44 89.1097 1656.85 88.1097 1652.08 88.1097H1634.71L1639.45 82.7997V116.46Z" fill="white"/>
<path d="M1716.64 137.07V88.0697H1697.36V78.8997H1746.77V88.0397H1727.49V137.04L1716.64 137.07Z" fill="white"/>
<path d="M1799.65 137.9C1795.38 137.939 1791.14 137.176 1787.14 135.65C1783.42 134.235 1780.02 132.09 1777.14 129.34C1774.33 126.651 1772.09 123.415 1770.57 119.83C1769 116.082 1768.21 112.053 1768.25 107.99C1768.2 103.896 1768.99 99.8364 1770.57 96.0597C1772.09 92.4842 1774.32 89.2602 1777.14 86.5897C1780.03 83.8613 1783.43 81.7305 1787.14 80.3197C1791.15 78.785 1795.41 78.0216 1799.69 78.0697C1803.95 78.0302 1808.17 78.7796 1812.15 80.2797C1815.85 81.664 1819.23 83.7834 1822.08 86.5097C1824.89 89.1978 1827.11 92.4352 1828.6 96.0197C1830.19 99.8203 1830.98 103.903 1830.93 108.02C1830.98 112.11 1830.18 116.167 1828.6 119.94C1827.08 123.55 1824.83 126.812 1822 129.527C1819.17 132.242 1815.82 134.352 1812.15 135.73C1808.16 137.216 1803.92 137.952 1799.65 137.9ZM1799.65 128.43C1802.42 128.459 1805.18 127.95 1807.75 126.93C1810.16 125.965 1812.35 124.523 1814.19 122.69C1816.03 120.833 1817.49 118.631 1818.47 116.21C1819.52 113.596 1820.04 110.803 1820 107.99C1820.04 105.176 1819.53 102.382 1818.51 99.7597C1817.55 97.3273 1816.09 95.1209 1814.23 93.2797C1812.37 91.4522 1810.17 90.0111 1807.75 89.0397C1805.18 88.0228 1802.42 87.5167 1799.65 87.5497C1796.85 87.5207 1794.07 88.0264 1791.46 89.0397C1789.01 89.9917 1786.79 91.4502 1784.94 93.3197C1782.1 96.3011 1780.18 100.04 1779.42 104.087C1778.65 108.134 1779.07 112.316 1780.62 116.13C1781.63 118.56 1783.1 120.774 1784.94 122.65C1786.79 124.519 1789.01 125.978 1791.46 126.93C1794.07 127.936 1796.85 128.435 1799.65 128.4V128.43Z" fill="white"/>
<path d="M1798.18 232.232C1793.9 232.271 1789.66 231.508 1785.67 229.982C1781.94 228.567 1778.54 226.422 1775.67 223.672C1772.85 220.983 1770.61 217.747 1769.1 214.162C1767.52 210.414 1766.73 206.385 1766.78 202.322C1766.73 198.229 1767.52 194.169 1769.1 190.392C1770.61 186.816 1772.85 183.592 1775.67 180.922C1778.55 178.193 1781.95 176.063 1785.67 174.652C1789.67 173.117 1793.93 172.354 1798.22 172.402C1802.47 172.362 1806.69 173.112 1810.68 174.612C1814.37 175.996 1817.75 178.116 1820.61 180.842C1823.41 183.53 1825.63 186.767 1827.13 190.352C1828.71 194.152 1829.5 198.235 1829.46 202.352C1829.5 206.442 1828.71 210.499 1827.13 214.272C1825.6 217.882 1823.35 221.144 1820.52 223.859C1817.7 226.574 1814.35 228.684 1810.68 230.062C1806.68 231.549 1802.44 232.284 1798.18 232.232ZM1798.18 222.762C1800.95 222.791 1803.7 222.282 1806.28 221.262C1808.69 220.297 1810.88 218.855 1812.72 217.022C1814.56 215.165 1816.01 212.963 1817 210.542C1818.04 207.928 1818.56 205.136 1818.53 202.322C1818.56 199.508 1818.06 196.714 1817.04 194.092C1816.07 191.659 1814.61 189.453 1812.76 187.612C1810.9 185.784 1808.69 184.343 1806.28 183.372C1803.7 182.355 1800.95 181.849 1798.18 181.882C1795.38 181.853 1792.6 182.359 1789.99 183.372C1787.54 184.324 1785.31 185.782 1783.47 187.652C1780.62 190.633 1778.7 194.372 1777.94 198.419C1777.17 202.466 1777.59 206.648 1779.15 210.462C1780.15 212.892 1781.62 215.106 1783.47 216.982C1785.31 218.851 1787.54 220.31 1789.99 221.262C1792.6 222.268 1795.38 222.767 1798.18 222.732V222.762Z" fill="white"/>
<path d="M1539.77 236.78L1565.94 178.61H1576.58L1602.84 236.78H1591.45L1569.02 184.4H1573.34L1550.82 236.83L1539.77 236.78ZM1551.77 223.31L1554.77 214.84H1586.1L1589 223.31H1551.77Z" fill="white"/>
<path d="M1637.45 236.78V187.78H1618.17V178.64H1667.52V187.78H1648.25V236.78H1637.45Z" fill="white"/>
<path d="M1402.77 236.578V178.408H1426.7C1431.25 178.305 1435.76 179.156 1439.95 180.908C1443.44 182.375 1446.4 184.847 1448.47 188.008C1450.54 191.347 1451.58 195.215 1451.47 199.138C1451.64 202.978 1450.62 206.776 1448.57 210.022C1446.51 213.269 1443.51 215.808 1439.96 217.298C1435.78 219.085 1431.26 219.948 1426.71 219.828H1408.84L1413.58 214.828V236.578H1402.77ZM1413.57 215.968L1408.83 210.648H1426.2C1430.96 210.648 1434.55 209.648 1436.96 207.648C1438.18 206.598 1439.13 205.284 1439.76 203.807C1440.38 202.33 1440.66 200.73 1440.57 199.128C1440.66 197.528 1440.38 195.929 1439.76 194.454C1439.13 192.979 1438.18 191.667 1436.96 190.618C1434.56 188.618 1430.97 187.618 1426.2 187.618H1408.83L1413.57 182.308V215.968Z" fill="white"/>
<path d="M1480.77 236.56V178.4H1491.57V227.4H1521.98V236.54L1480.77 236.56Z" fill="white"/>
<path d="M1708.57 236.56H1697.77V178.4H1740.23V187.54H1708.57V236.56ZM1707.74 205.23H1736.66V214.23H1707.74V205.23Z" fill="white"/>
</g>
<path d="M1920 232.16V174H1928.89L1954.31 216.46H1949.66L1974.66 174H1983.55L1983.72 232.16H1973.33V190.04H1975.41L1954.3 225.6H1949.4L1927.8 190.04H1930.29V232.16H1920Z" fill="white"/>
<path d="M1846.77 231.57V173.41H1870.7C1875.24 173.296 1879.76 174.13 1883.95 175.86C1887.43 177.33 1890.4 179.801 1892.47 182.96C1894.53 186.303 1895.58 190.174 1895.47 194.1C1895.64 197.92 1894.62 201.697 1892.56 204.918C1890.5 208.138 1887.5 210.646 1883.96 212.1C1879.77 213.859 1875.26 214.707 1870.71 214.59H1852.84L1857.58 209.77V231.54L1846.77 231.57ZM1857.57 210.97L1852.83 205.73H1870.2C1874.96 205.73 1878.55 204.707 1880.96 202.66C1882.17 201.599 1883.13 200.278 1883.75 198.795C1884.38 197.312 1884.66 195.707 1884.57 194.1C1884.66 192.499 1884.38 190.898 1883.76 189.421C1883.13 187.945 1882.18 186.631 1880.96 185.58C1878.55 183.58 1874.96 182.58 1870.2 182.58H1852.83L1857.57 177.26V210.97ZM1884.82 231.57L1870.12 210.47H1881.66L1896.45 231.57H1884.82Z" fill="white"/>
<defs>
<clipPath id="clip0_2223_40">
<rect width="1831.12" height="313.19" fill="white"/>
</clipPath>
</defs>
</svg>
