<svg width="14" height="22" viewBox="0 0 14 23" fill="none" xmlns="http://www.w3.org/2000/svg">
<path d="M13.83 8.45779C13.7383 8.3218 13.6146 8.21046 13.4699 8.13358C13.3252 8.0567 13.1638 8.01662 13 8.01686H10V6.01265H12.2C12.4652 6.01265 12.7196 5.90707 12.9071 5.71914C13.0946 5.53121 13.2 5.27632 13.2 5.01054V1.00211C13.2 0.736332 13.0946 0.481442 12.9071 0.293511C12.7196 0.105579 12.4652 0 12.2 0H9C7.46174 0 5.98649 0.612358 4.89878 1.70236C3.81107 2.79237 3.2 4.27073 3.2 5.81223V8.01686H1C0.734784 8.01686 0.48043 8.12244 0.292893 8.31037C0.105357 8.49831 0 8.7532 0 9.01897V13.0274C0 13.2932 0.105357 13.5481 0.292893 13.736C0.48043 13.9239 0.734784 14.0295 1 14.0295H3.2V21.0443C3.2 21.31 3.30536 21.5649 3.49289 21.7529C3.68043 21.9408 3.93478 22.0464 4.2 22.0464H9C9.26522 22.0464 9.51957 21.9408 9.70711 21.7529C9.89464 21.5649 10 21.31 10 21.0443V14.0295H11.4C11.6003 14.0297 11.796 13.9696 11.9618 13.8571C12.1276 13.7445 12.2559 13.5846 12.33 13.3982L13.93 9.38975C13.9904 9.23801 14.0129 9.07377 13.9954 8.91133C13.978 8.7489 13.9212 8.5932 13.83 8.45779ZM10.72 12.0253H9C8.73478 12.0253 8.48043 12.1309 8.29289 12.3188C8.10536 12.5067 8 12.7616 8 13.0274V20.0422H5.2V13.0274C5.2 12.7616 5.09464 12.5067 4.90711 12.3188C4.71957 12.1309 4.46522 12.0253 4.2 12.0253H2V10.0211H4.2C4.46522 10.0211 4.71957 9.9155 4.90711 9.72757C5.09464 9.53964 5.2 9.28475 5.2 9.01897V5.81223C5.20264 4.80309 5.60384 3.83605 6.31591 3.12248C7.02798 2.40891 7.99299 2.00686 9 2.00422H11.2V4.00843H10.4C10.0614 3.959 9.71631 3.97975 9.38605 4.06938C9.0558 4.15901 8.74741 4.31563 8.48 4.52953C8.31772 4.69978 8.19153 4.90121 8.10903 5.12166C8.02654 5.34211 7.98945 5.57702 8 5.81223V9.01897C8 9.28475 8.10536 9.53964 8.29289 9.72757C8.48043 9.9155 8.73478 10.0211 9 10.0211H11.52L10.72 12.0253Z" fill="#A7A7A7"/>
</svg>
