<svg width="181" height="33" viewBox="0 0 181 33" fill="none" xmlns="http://www.w3.org/2000/svg">
<g clip-path="url(#clip0_1386_2236)">
<g clip-path="url(#clip1_1386_2236)">
<path d="M52.7783 7.19336L60.2214 22.2514H56.7834L55.0337 18.5864H47.5422L45.9142 22.2514H42.5L49.4492 7.19336H52.7783ZM48.5318 16.3769H53.9748L51.1276 10.4163L48.5318 16.3769Z" fill="white"/>
<path d="M73.7831 22.252L70.2669 16.3806H69.6494L66.1124 22.252H62.7031L67.1347 14.8789L62.7031 7.52832H66.1124L69.6494 13.3751H70.2669L73.7831 7.52832H77.1894L72.7578 14.8789L77.1894 22.252H73.7831Z" fill="white"/>
<path d="M80.8359 22.252V7.52832H83.7336V22.252H80.8359Z" fill="white"/>
<path d="M92.1512 22.251C91.5799 22.2524 91.0141 22.1367 90.4861 21.9107C89.9581 21.6848 89.4784 21.3529 89.0745 20.9342C88.6706 20.5154 88.3505 20.0181 88.1326 19.4708C87.9147 18.9235 87.8033 18.337 87.8047 17.7449V12.0089C87.8057 11.4187 87.919 10.8345 88.1381 10.2897C88.3572 9.74493 88.6778 9.25027 89.0815 8.83403C89.4851 8.41779 89.9641 8.08813 90.4908 7.86392C91.0175 7.63971 91.5818 7.52535 92.1512 7.52737H97.9465C98.5159 7.52535 99.0801 7.63971 99.6068 7.86392C100.134 8.08813 100.612 8.41779 101.016 8.83403C101.42 9.25027 101.74 9.74493 101.96 10.2897C102.179 10.8345 102.292 11.4187 102.293 12.0089V17.7531C102.294 18.3449 102.182 18.9311 101.964 19.4781C101.746 20.0251 101.426 20.522 101.022 20.9404C100.618 21.3588 100.139 21.6904 99.6109 21.9162C99.0831 22.142 98.5174 22.2575 97.9465 22.2561L92.1512 22.251ZM99.3953 17.748V12.0089C99.395 11.6107 99.2423 11.2289 98.9706 10.9473C98.699 10.6658 98.3306 10.5075 97.9465 10.5072H92.1512C91.7681 10.5112 91.4018 10.6707 91.131 10.9514C90.8601 11.2322 90.7062 11.6118 90.7024 12.0089V17.7531C90.7026 18.1512 90.8554 18.5329 91.127 18.8143C91.3987 19.0957 91.7671 19.2538 92.1512 19.2538H97.9465C98.1378 19.2556 98.3275 19.2177 98.5046 19.1424C98.6816 19.0671 98.8423 18.956 98.9773 18.8154C99.1122 18.6748 99.2187 18.5077 99.2905 18.3239C99.3623 18.14 99.3979 17.9432 99.3953 17.7449V17.748Z" fill="white"/>
<path d="M117.955 22.252V14.7465L113.611 19.2496L109.257 14.7465V22.252H106.359V7.52832L113.603 15.0163L120.849 7.53345V22.252H117.955Z" fill="white"/>
<path d="M31.1804 32.1255L19.3305 12.3788L11.3808 25.5751H18.8159L14.8663 32.1255H0L19.3305 0L38.6155 32.1255H31.1804Z" fill="#268F44"/>
<path d="M31.1819 32.1255C27.2326 21.4167 23.2826 10.7082 19.332 0L38.617 32.1255H31.1819Z" fill="#1B7D39"/>
<path d="M19.3305 12.3788L11.3808 25.5751H18.8159L14.8663 32.1255H0L19.3305 0V12.3788Z" fill="#5DBA64"/>
<path d="M19.3325 12.3788L11.3828 25.5751C14.035 17.0504 16.6849 8.52537 19.3325 0V12.3788Z" fill="#3FB450"/>
<path d="M19.3305 12.3789L11.3808 25.5752H18.8159L14.8663 32.1257H0L19.3305 12.3789Z" fill="#EE6B1F"/>
<path d="M11.3808 25.5752H18.8159L0 32.1257L11.3808 25.5752Z" fill="#C55917"/>
<path d="M18.8199 25.5752L14.8702 32.1257H0L18.8199 25.5752Z" fill="#F27D56"/>
<path d="M130.207 0.614258V31.511" stroke="white" stroke-width="0.78355" stroke-miterlimit="10"/>
<path d="M138.488 12.7878V6.82099H141.013C141.578 6.80979 142.137 6.93702 142.646 7.19232C143.103 7.4236 143.487 7.78601 143.751 8.23653C144.021 8.7109 144.159 9.2541 144.147 9.80491C144.158 10.3554 144.021 10.8982 143.751 11.3723C143.487 11.8228 143.103 12.1852 142.646 12.4165C142.137 12.6718 141.578 12.799 141.013 12.7878H138.488ZM139.558 11.8503H140.944C141.332 11.8607 141.717 11.7727 142.066 11.5938C142.373 11.4312 142.629 11.1824 142.806 10.8758C142.989 10.55 143.081 10.1785 143.073 9.80183C143.083 9.42199 142.991 9.04676 142.806 8.71863C142.627 8.41701 142.371 8.17247 142.066 8.01189C141.717 7.83304 141.332 7.74501 140.944 7.75545H139.558V11.8503Z" fill="white"/>
<path d="M146.203 12.7881L148.793 6.82129H149.846L152.445 12.7881H151.318L149.098 7.41007H149.525L147.297 12.7881H146.203ZM147.391 11.4074L147.688 10.5376H150.788L151.075 11.4074H147.391Z" fill="white"/>
<path d="M155.869 12.7881V7.7619H153.961V6.82129H158.845V7.75883H156.938V12.785L155.869 12.7881Z" fill="white"/>
<path d="M160.367 12.7881L162.957 6.82129H164.01L166.608 12.7881H165.482L163.261 7.41007H163.689L161.461 12.7881H160.367ZM161.555 11.4074L161.852 10.5376H164.951L165.239 11.4074H161.555Z" fill="white"/>
<path d="M141.153 23.1009C140.734 23.1055 140.319 23.0286 139.928 22.8743C139.567 22.7313 139.238 22.5147 138.96 22.2373C138.682 21.96 138.46 21.6275 138.309 21.2597C138.001 20.4725 138.001 19.5923 138.309 18.8051C138.459 18.4391 138.68 18.1086 138.958 17.8337C139.24 17.5536 139.572 17.3346 139.937 17.1895C140.75 16.88 141.645 16.8892 142.452 17.2152C142.836 17.3771 143.175 17.633 143.442 17.9609L142.749 18.6348C142.55 18.4125 142.31 18.2342 142.043 18.1107C141.781 17.9929 141.498 17.9331 141.212 17.9353C140.93 17.9316 140.649 17.9838 140.386 18.0891C140.143 18.1869 139.922 18.3348 139.736 18.524C139.55 18.7135 139.404 18.9395 139.304 19.1887C139.096 19.7304 139.096 20.3344 139.304 20.8761C139.405 21.1252 139.552 21.3511 139.738 21.5408C139.924 21.73 140.145 21.8779 140.388 21.9757C140.652 22.0801 140.932 22.132 141.214 22.1285C141.5 22.131 141.783 22.0716 142.045 21.9542C142.313 21.8293 142.554 21.648 142.751 21.4218L143.444 22.0947C143.177 22.4232 142.837 22.6804 142.454 22.8445C142.042 23.0205 141.599 23.1078 141.153 23.1009Z" fill="white"/>
<path d="M147.358 22.0771H150.606V23.0156H146.289V17.0488H150.491V17.9864H147.358V22.0771ZM147.276 19.5291H150.129V20.441H147.267L147.276 19.5291Z" fill="white"/>
<path d="M153.609 23.0156V17.0488H154.489L158.098 21.6514H157.663V17.0488H158.715V23.0156H157.835L154.234 18.4131H154.669V23.0156H153.609Z" fill="white"/>
<path d="M163.256 23.0165V17.9903H161.348V17.0527H166.232V17.9903H164.324V23.0165H163.256Z" fill="white"/>
<path d="M169.92 22.0771H173.169V23.0156H168.852V17.0488H173.054V17.9864H169.92V22.0771ZM169.838 19.5291H172.7V20.441H169.841L169.838 19.5291Z" fill="white"/>
<path d="M176.18 23.0157V17.0489H178.548C178.997 17.0372 179.444 17.1228 179.859 17.3002C180.204 17.4514 180.497 17.7052 180.702 18.0295C180.906 18.372 181.01 18.7688 180.999 19.1712C181.015 19.563 180.915 19.9504 180.711 20.2808C180.507 20.6112 180.21 20.8684 179.86 21.0175C179.445 21.1983 178.999 21.2857 178.549 21.274H176.78L177.249 20.7796V23.0126L176.18 23.0157ZM177.248 20.9016L176.779 20.3641H178.498C178.969 20.3641 179.324 20.2592 179.563 20.0492C179.683 19.9405 179.778 19.805 179.839 19.6529C179.901 19.5007 179.929 19.336 179.92 19.1712C179.929 19.0071 179.902 18.8431 179.84 18.6917C179.778 18.5404 179.683 18.4058 179.563 18.2983C179.324 18.0931 178.969 17.9906 178.498 17.9906H176.779L177.248 17.4449V20.9016ZM179.945 23.0157L178.49 20.8504H179.633L181.101 23.0157H179.945Z" fill="white"/>
</g>
</g>
<defs>
<clipPath id="clip0_1386_2236">
<rect width="181" height="32.1255" fill="white"/>
</clipPath>
<clipPath id="clip1_1386_2236">
<rect width="181.098" height="32.1255" fill="white"/>
</clipPath>
</defs>
</svg>
