<svg width="22" height="22" viewBox="0 0 22 22" fill="none" xmlns="http://www.w3.org/2000/svg">
<path d="M21.2647 1.40046C20.98 1.16309 20.6364 1.00753 20.2704 0.950316C19.9045 0.893105 19.5299 0.93639 19.1866 1.07556L1.26566 8.32617C0.88241 8.48418 0.556176 8.75526 0.33026 9.10342C0.104343 9.45158 -0.0105725 9.86036 0.000764965 10.2755C0.0121025 10.6906 0.149157 11.0925 0.393738 11.4278C0.638319 11.763 0.978859 12.0158 1.37016 12.1526L4.99516 13.416L7.01566 20.1117C7.04312 20.2011 7.08297 20.2863 7.13404 20.3646C7.14179 20.3766 7.15272 20.3856 7.16096 20.3973C7.21996 20.4798 7.29127 20.5527 7.37239 20.6135C7.39546 20.6311 7.41755 20.6476 7.44221 20.6633C7.53714 20.7264 7.64228 20.7725 7.75294 20.7997L7.76478 20.8007L7.77149 20.8036C7.83802 20.8171 7.90574 20.824 7.97364 20.8241C7.98017 20.8241 7.98597 20.821 7.99244 20.8209C8.0949 20.8191 8.19647 20.8014 8.29353 20.7684C8.31611 20.7607 8.33546 20.7478 8.35737 20.7385C8.42975 20.7085 8.49832 20.6699 8.56166 20.6237C8.61238 20.5809 8.66312 20.5381 8.71388 20.4953L11.416 17.5056L15.4463 20.6343C15.8011 20.9111 16.2379 21.0615 16.6875 21.0619C17.1587 21.0613 17.6154 20.8984 17.9809 20.6005C18.3465 20.3026 18.5987 19.8878 18.6954 19.4256L21.958 3.37532C22.032 3.01408 22.0065 2.63949 21.8844 2.29163C21.7623 1.94377 21.5481 1.63573 21.2647 1.40046ZM8.37016 13.735C8.2315 13.8734 8.13672 14.0498 8.0977 14.2419L7.78819 15.7491L7.00413 13.1506L11.0694 11.0292L8.37016 13.735ZM16.6719 19.0499L11.9092 15.3526C11.71 15.1983 11.46 15.1249 11.2092 15.1471C10.9583 15.1692 10.725 15.2852 10.5557 15.472L9.69029 16.4292L9.99613 14.9396L17.0791 7.84172C17.2482 7.67252 17.3512 7.44825 17.3695 7.20951C17.3878 6.97077 17.3201 6.73337 17.1788 6.5403C17.0375 6.34722 16.8319 6.21125 16.5992 6.15701C16.3664 6.10277 16.122 6.13384 15.9102 6.24461L5.74491 11.5484L2.02055 10.1826L19.999 2.97504L16.6719 19.0499Z" fill="#A7A7A7"/>
</svg>
