<svg width="22" height="19" viewBox="0 0 22 19" fill="none" xmlns="http://www.w3.org/2000/svg">
<path d="M22.0002 1.4764C22.0003 1.2994 21.9536 1.12552 21.8649 0.972487C21.7761 0.819451 21.6485 0.69272 21.4949 0.6052C21.3414 0.517681 21.1675 0.4725 20.9909 0.474258C20.8142 0.476017 20.6412 0.524652 20.4895 0.61521C19.9042 0.96433 19.274 1.23169 18.6165 1.40988C17.6774 0.602416 16.4798 0.160557 15.2425 0.165073C13.885 0.166639 12.5813 0.696785 11.6067 1.64356C10.632 2.59034 10.0626 3.87965 10.0188 5.23923C7.34281 4.81159 4.91746 3.41191 3.20528 1.3071C3.10212 1.18167 2.97037 1.08294 2.82114 1.01924C2.67192 0.955534 2.50959 0.928727 2.34786 0.941076C2.18622 0.954413 2.03026 1.00701 1.89345 1.09431C1.75665 1.18161 1.64313 1.30099 1.5627 1.44213C1.15023 2.16346 0.913333 2.97211 0.871252 3.8024C0.82917 4.6327 0.98309 5.46123 1.32051 6.22073L1.31856 6.22268C1.16691 6.31629 1.04175 6.44731 0.955067 6.60323C0.868381 6.75915 0.823061 6.93475 0.823442 7.11324C0.821606 7.26048 0.830419 7.40765 0.849812 7.55361C0.951949 8.81453 1.50959 9.99481 2.41817 10.8731C2.35654 10.9908 2.31892 11.1196 2.30751 11.252C2.29611 11.3844 2.31115 11.5177 2.35176 11.6442C2.74788 12.881 3.59026 13.9251 4.71407 14.5723C3.57231 15.0147 2.33949 15.169 1.12422 15.0215C0.899294 14.9932 0.671452 15.0423 0.47807 15.1609C0.284688 15.2794 0.137249 15.4603 0.0599373 15.6739C-0.0173743 15.8874 -0.0199674 16.1209 0.0525831 16.3362C0.125134 16.5514 0.26852 16.7355 0.459222 16.8583C2.54932 18.2073 4.9829 18.9246 7.46899 18.9242C10.2883 18.956 13.039 18.0532 15.2932 16.3563C17.5475 14.6593 19.1789 12.2634 19.9338 9.54117C20.2869 8.35531 20.4671 7.12455 20.469 5.88704C20.469 5.82147 20.469 5.75395 20.468 5.68643C20.9901 5.12217 21.3946 4.45915 21.6577 3.73622C21.9208 3.0133 22.0372 2.24501 22.0002 1.4764ZM18.6936 4.69508C18.5284 4.89084 18.4448 5.14282 18.4602 5.39871C18.4699 5.56406 18.469 5.73041 18.469 5.88704C18.4669 6.93278 18.314 7.97273 18.0149 8.97459C17.3984 11.2909 16.024 13.3328 14.1119 14.7734C12.1999 16.214 9.86067 16.9699 7.46899 16.92C6.60987 16.9203 5.75371 16.8191 4.91821 16.6186C5.98362 16.2745 6.9798 15.7441 7.86059 15.0518C8.02282 14.9238 8.14154 14.7487 8.20048 14.5504C8.25942 14.3521 8.25567 14.1403 8.18977 13.9442C8.12386 13.7482 7.99902 13.5773 7.83237 13.4552C7.66572 13.333 7.46544 13.2655 7.25899 13.2619C6.42782 13.249 5.63412 12.9132 5.04512 12.3254C5.19454 12.297 5.34298 12.2618 5.49044 12.2197C5.70645 12.1581 5.89549 12.0254 6.0271 11.843C6.15872 11.6607 6.22526 11.4392 6.21601 11.2144C6.20677 10.9895 6.12227 10.7743 5.97613 10.6034C5.82998 10.4325 5.6307 10.3158 5.41036 10.2722C4.9279 10.1768 4.47391 9.97107 4.08368 9.67116C3.69345 9.37125 3.37749 8.9852 3.16036 8.54302C3.34109 8.56774 3.52297 8.58309 3.70528 8.58901C3.92187 8.59229 4.13388 8.52645 4.31066 8.40102C4.48744 8.27559 4.61983 8.09706 4.68868 7.89125C4.75466 7.68358 4.75127 7.46001 4.67901 7.25445C4.60676 7.04888 4.46958 6.87253 4.28829 6.75214C3.84844 6.45849 3.48814 6.0601 3.23965 5.59266C2.99116 5.12521 2.86225 4.6033 2.86446 4.07366C2.86446 4.00712 2.86641 3.94057 2.87032 3.87501C5.11158 5.96967 8.01864 7.20446 11.0793 7.36183C11.2338 7.36793 11.3877 7.33877 11.5293 7.27655C11.6709 7.21433 11.7965 7.12068 11.8967 7.00268C11.9959 6.88353 12.0661 6.74294 12.1019 6.59197C12.1376 6.441 12.1379 6.28378 12.1027 6.13269C12.0455 5.89355 12.0164 5.64854 12.0158 5.40263C12.0167 4.54536 12.3569 3.72347 12.9619 3.11729C13.5668 2.51111 14.3869 2.17016 15.2424 2.16926C15.6825 2.16808 16.1181 2.25834 16.5217 2.43436C16.9253 2.61038 17.288 2.86833 17.5871 3.19192C17.7024 3.31626 17.8476 3.40897 18.0088 3.46122C18.17 3.51347 18.3418 3.52353 18.508 3.49044C18.9188 3.41033 19.3237 3.30243 19.7199 3.1675C19.4496 3.72164 19.1043 4.23569 18.6936 4.69508Z" fill="#A7A7A7"/>
</svg>
